<svg width="15" height="15" viewBox="0 0 15 15" fill="none" xmlns="http://www.w3.org/2000/svg">
<path fill-rule="evenodd" clip-rule="evenodd" d="M7.5 14C11.0899 14 14 11.0899 14 7.5C14 3.91015 11.0899 1 7.5 1C3.91015 1 1 3.91015 1 7.5C1 11.0899 3.91015 14 7.5 14ZM7.49992 8.63669C7.76642 8.63669 7.98742 8.41569 7.98742 8.14919V4.89919C7.98742 4.63269 7.76642 4.41169 7.49992 4.41169C7.23342 4.41169 7.01242 4.63269 7.01242 4.89919V8.14919C7.01242 8.41569 7.23342 8.63669 7.49992 8.63669ZM7.96149 9.63789C8.01999 9.70289 8.06549 9.77439 8.09799 9.85239C8.13049 9.93039 8.14999 10.0149 8.14999 10.0994C8.14999 10.1839 8.13049 10.2684 8.09799 10.3464C8.06549 10.4309 8.01999 10.4959 7.96149 10.5609C7.89649 10.6194 7.82499 10.6649 7.74699 10.6974C7.66899 10.7299 7.58449 10.7494 7.49999 10.7494C7.41549 10.7494 7.33099 10.7299 7.25299 10.6974C7.17499 10.6649 7.10349 10.6194 7.03849 10.5609C6.97999 10.4959 6.93449 10.4309 6.90199 10.3464C6.86949 10.2684 6.84999 10.1839 6.84999 10.0994C6.84999 10.0149 6.86949 9.93039 6.90199 9.85239C6.93449 9.77439 6.97999 9.70289 7.03849 9.63789C7.10349 9.57939 7.17499 9.53389 7.25299 9.50139C7.40899 9.43639 7.59099 9.43639 7.74699 9.50139C7.82499 9.53389 7.89649 9.57939 7.96149 9.63789Z" fill="#CACACA"/>
</svg>
